<svg width="200" height="200" viewBox="0 0 200 200" fill="none" xmlns="http://www.w3.org/2000/svg">
<path d="M198.5 100C198.5 154.4 154.4 198.5 100 198.5C45.6 198.5 1.5 154.4 1.5 100C1.5 45.6 45.6 1.5 100 1.5C154.4 1.5 198.5 45.6 198.5 100Z" fill="white" stroke="black" stroke-width="3"/>
<path d="M63 100.5C63 110.165 55.165 118 45.5 118C35.835 118 28 110.165 28 100.5C28 90.835 35.835 83 45.5 83C55.165 83 63 90.835 63 100.5Z" fill="#FF0000" stroke="black" stroke-width="2"/>
<path d="M118 100.5C118 110.165 110.165 118 100.5 118C90.835 118 83 110.165 83 100.5C83 90.835 90.835 83 100.5 83C110.165 83 118 90.835 118 100.5Z" fill="#00FF00" stroke="black" stroke-width="2"/>
<path d="M173 100.5C173 110.165 165.165 118 155.5 118C145.835 118 138 110.165 138 100.5C138 90.835 145.835 83 155.5 83C165.165 83 173 90.835 173 100.5Z" fill="#00FFF0" stroke="black" stroke-width="2"/>
</svg>
