<?xml version="1.0" encoding="UTF-8" standalone="no" ?>
<!DOCTYPE svg PUBLIC "-//W3C//DTD SVG 1.1//EN" "http://www.w3.org/Graphics/SVG/1.1/DTD/svg11.dtd">
<svg xmlns="http://www.w3.org/2000/svg" xmlns:xlink="http://www.w3.org/1999/xlink" version="1.1" width="50" height="80" viewBox="0 0 70 100" xml:space="preserve">
<desc>Created with Fabric.js 5.2.4</desc>
<defs>
</defs>
<g transform="matrix(1 0 0 1 35 50)" id="87ca324b-019d-4bac-8365-de61a2e5fbfc"  >
<rect style="stroke: none; stroke-width: 1; stroke-dasharray: none; stroke-linecap: butt; stroke-dashoffset: 0; stroke-linejoin: miter; stroke-miterlimit: 4; fill: rgb(255,255,255); fill-rule: nonzero; opacity: 1; visibility: hidden;" vector-effect="non-scaling-stroke"  x="-35" y="-50" rx="0" ry="0" width="70" height="100" />
</g>
<g transform="matrix(Infinity NaN NaN Infinity 0 0)" id="e9137cff-d6a6-4e12-8426-e9254a9c8390"  >
</g>
<g transform="matrix(0.64 0 0 0.58 39.35 47.74)" id="27d09f28-ed0a-45ec-beec-c143a09ecb71"  >
<circle style="stroke: rgb(255,158,0); stroke-width: 0; stroke-dasharray: none; stroke-linecap: butt; stroke-dashoffset: 0; stroke-linejoin: miter; stroke-miterlimit: 4; fill: rgb(255,158,0); fill-rule: nonzero; opacity: 1;" vector-effect="non-scaling-stroke"  cx="0" cy="0" r="35" />
</g>
<g transform="matrix(0.39 0 0 0.46 32.96 75.4)" id="27d09f28-ed0a-45ec-beec-c143a09ecb71"  >
<circle style="stroke: rgb(255,158,0); stroke-width: 0; stroke-dasharray: none; stroke-linecap: butt; stroke-dashoffset: 0; stroke-linejoin: miter; stroke-miterlimit: 4; fill: rgb(255,158,0); fill-rule: nonzero; opacity: 1;" vector-effect="non-scaling-stroke"  cx="0" cy="0" r="35" />
</g>
<g transform="matrix(0.39 0 0 0.64 29 59.45)" id="27d09f28-ed0a-45ec-beec-c143a09ecb71"  >
<circle style="stroke: rgb(255,158,0); stroke-width: 0; stroke-dasharray: none; stroke-linecap: butt; stroke-dashoffset: 0; stroke-linejoin: miter; stroke-miterlimit: 4; fill: rgb(255,158,0); fill-rule: nonzero; opacity: 1;" vector-effect="non-scaling-stroke"  cx="0" cy="0" r="35" />
</g>
<g transform="matrix(0.39 0 0 0.64 43 56.3)" id="27d09f28-ed0a-45ec-beec-c143a09ecb71"  >
<circle style="stroke: rgb(255,158,0); stroke-width: 0; stroke-dasharray: none; stroke-linecap: butt; stroke-dashoffset: 0; stroke-linejoin: miter; stroke-miterlimit: 4; fill: rgb(255,158,0); fill-rule: nonzero; opacity: 1;" vector-effect="non-scaling-stroke"  cx="0" cy="0" r="35" />
</g>
<g transform="matrix(0.05 0 0 0.05 24.76 50)"  >
<g style="" vector-effect="non-scaling-stroke"   >
		<g transform="matrix(0.1 0 0 -0.1 256.35 -78.63)"  >
<path style="stroke: none; stroke-width: 1; stroke-dasharray: none; stroke-linecap: butt; stroke-dashoffset: 0; stroke-linejoin: miter; stroke-miterlimit: 4; fill: rgb(22,181,37); fill-rule: nonzero; opacity: 1;" vector-effect="non-scaling-stroke"  transform=" translate(-9532.16, -9689.99)" d="M 10745 18008 C 10602 17980 10438 17935 10386 17909 C 10287 17860 10202 17792 10054 17645 C 9953 17544 9903 17486 9877 17439 C 9856 17403 9840 17366 9840 17357 C 9840 17336 9811 17335 9749 17354 C 9659 17382 9492 17393 9374 17380 C 9042 17344 8818 17259 8601 17086 C 8446 16962 8227 16646 8166 16456 C 8097 16246 8167 15820 8310 15576 C 8332 15539 8350 15504 8350 15500 C 8350 15496 8322 15483 8288 15471 C 8057 15390 7934 15303 7818 15140 C 7667 14926 7625 14742 7666 14463 C 7720 14088 7886 13804 8177 13584 C 8421 13400 8715 13321 9174 13317 L 9364 13315 L 9377 13265 C 9385 13238 9395 13193 9399 13165 C 9404 13138 9411 13103 9415 13088 C 9422 13061 9421 13060 9377 13060 C 9350 13060 9308 13071 9269 13089 C 9207 13116 9074 13153 8919 13185 C 8582 13254 8127 13243 7775 13158 C 7510 13094 7195 12928 6920 12706 C 6626 12470 6201 11922 6022 11548 C 5999 11500 5980 11458 5980 11455 C 5980 11437 5870 11179 5819 11077 C 5659 10760 5596 10558 5450 9910 C 5438 9858 5422 9788 5415 9755 C 5310 9307 5217 8624 5180 8025 C 5131 7244 5127 7155 5127 6705 C 5126 6231 5134 6089 5184 5720 C 5247 5252 5284 5088 5391 4795 C 5414 4735 5443 4654 5457 4615 C 5471 4577 5489 4532 5496 4515 C 5503 4499 5532 4427 5559 4355 C 5586 4284 5647 4131 5693 4015 C 5740 3900 5797 3758 5820 3700 C 5921 3448 6098 3036 6151 2930 C 6213 2805 6294 2691 6508 2430 C 6828 2041 7022 1837 7160 1748 C 7342 1629 7633 1504 7875 1441 C 8045 1396 8311 1360 8474 1360 C 8593 1360 8815 1386 8906 1410 C 9148 1475 9497 1658 9945 1955 C 10322 2206 10531 2373 10799 2639 C 11263 3099 11930 3900 12266 4400 C 12369 4553 12630 4973 12630 4985 C 12630 4988 12641 5007 12653 5028 C 12678 5067 12690 5088 12807 5298 C 12945 5547 13038 5735 13095 5880 C 13161 6051 13161 6052 13295 6324 C 13456 6653 13554 6919 13721 7485 C 13765 7634 13807 7775 13815 7800 C 13850 7918 13911 8179 13920 8258 C 13941 8425 13943 8781 13926 9280 C 13917 9552 13908 9800 13905 9830 C 13902 9860 13895 9948 13890 10025 C 13845 10673 13681 11294 13460 11655 C 13313 11896 13184 12028 12930 12197 C 12570 12438 12116 12622 11545 12760 C 11496 12772 11447 12784 11437 12786 C 11423 12791 11431 12805 11481 12867 C 11561 12964 11569 12967 11656 12940 C 11760 12908 11905 12880 11969 12880 C 12106 12880 12481 12942 12660 12994 C 12895 13062 13110 13191 13210 13324 C 13367 13532 13406 13856 13305 14126 C 13291 14164 13276 14204 13270 14215 C 13239 14283 13210 14353 13212 14355 C 13214 14356 13267 14383 13331 14414 C 13521 14506 13621 14613 13724 14832 C 13814 15024 13838 15133 13820 15274 C 13779 15601 13640 15930 13415 16228 C 13214 16496 12969 16650 12586 16749 C 12542 16761 12496 16770 12483 16770 C 12461 16770 12460 16773 12460 16846 C 12460 16945 12439 17024 12383 17135 C 12297 17309 12158 17494 12030 17606 C 11857 17758 11623 17856 11108 17990 C 10982 18022 10853 18029 10745 18008 z M 11020 12880 C 11020 12875 11015 12870 11009 12870 C 11004 12870 11002 12875 11005 12880 C 11008 12886 11013 12890 11016 12890 C 11018 12890 11020 12886 11020 12880 z M 8775 12746 C 8987 12703 9161 12659 9225 12632 C 9279 12609 9303 12606 9480 12599 C 9672 12591 9818 12580 9975 12559 C 10154 12537 10288 12518 10345 12510 C 10378 12505 10455 12493 10515 12484 C 10895 12428 11293 12352 11530 12291 C 11729 12239 11753 12232 11901 12182 C 12337 12034 12721 11824 12909 11631 C 13037 11501 13170 11254 13247 11005 C 13413 10470 13472 9897 13474 8795 L 13475 8315 L 13442 8185 C 13425 8114 13403 8030 13394 8000 C 13386 7970 13376 7936 13373 7925 C 13370 7914 13355 7860 13339 7805 C 13323 7750 13302 7680 13293 7650 C 13233 7441 13067 6936 13034 6861 C 13021 6832 13010 6804 13010 6799 C 13010 6788 12951 6662 12832 6420 C 12777 6307 12713 6163 12689 6100 C 12565 5766 12061 4887 11746 4455 C 11667 4347 11646 4319 11485 4115 C 11057 3572 10528 2989 10235 2738 C 9887 2441 9230 2022 8915 1897 C 8758 1835 8701 1825 8470 1826 C 8187 1827 8020 1859 7749 1965 C 7534 2049 7404 2124 7307 2218 C 7187 2335 6954 2604 6739 2875 C 6578 3078 6582 3070 6415 3466 C 6183 4012 5850 4856 5774 5088 C 5732 5219 5698 5376 5665 5590 C 5620 5894 5604 6037 5589 6295 C 5577 6505 5582 7074 5600 7375 C 5605 7463 5614 7618 5619 7720 C 5653 8315 5710 8854 5780 9240 C 5791 9298 5804 9372 5810 9405 C 5816 9438 5825 9483 5830 9505 C 5835 9527 5846 9579 5855 9620 C 5864 9661 5875 9713 5880 9735 C 5885 9757 5896 9804 5904 9840 C 6043 10442 6076 10549 6216 10845 C 6332 11089 6319 11059 6378 11210 C 6405 11279 6440 11360 6455 11390 C 6498 11475 6605 11642 6701 11775 C 6961 12135 7124 12303 7379 12471 C 7635 12641 7833 12719 8085 12749 C 8135 12755 8186 12762 8200 12764 C 8266 12775 8699 12762 8775 12746 z" stroke-linecap="round" />
</g>
		<g transform="matrix(0.1 0 0 -0.1 160.29 -60.54)"  >
<path style="stroke: none; stroke-width: 1; stroke-dasharray: none; stroke-linecap: butt; stroke-dashoffset: 0; stroke-linejoin: miter; stroke-miterlimit: 4; fill: rgb(22,181,37); fill-rule: nonzero; opacity: 1;" vector-effect="non-scaling-stroke"  transform=" translate(-8571.65, -9509.12)" d="M 8505 9811 C 8410 9786 8341 9730 8298 9643 C 8237 9518 8261 9379 8361 9282 C 8424 9222 8495 9197 8590 9202 C 8756 9212 8869 9324 8878 9490 C 8885 9623 8826 9726 8710 9785 C 8655 9813 8558 9825 8505 9811 z" stroke-linecap="round" />
</g>
		<g transform="matrix(0.1 0 0 -0.1 322.57 -55.16)"  >
<path style="stroke: none; stroke-width: 1; stroke-dasharray: none; stroke-linecap: butt; stroke-dashoffset: 0; stroke-linejoin: miter; stroke-miterlimit: 4; fill: rgb(22,181,37); fill-rule: nonzero; opacity: 1;" vector-effect="non-scaling-stroke"  transform=" translate(-10194.39, -9455.32)" d="M 10127 9740 C 9862 9673 9821 9318 10064 9193 C 10139 9154 10243 9154 10322 9193 C 10504 9282 10542 9518 10397 9663 C 10330 9730 10217 9762 10127 9740 z" stroke-linecap="round" />
</g>
		<g transform="matrix(0.1 0 0 -0.1 234.97 -2.6)"  >
<path style="stroke: none; stroke-width: 1; stroke-dasharray: none; stroke-linecap: butt; stroke-dashoffset: 0; stroke-linejoin: miter; stroke-miterlimit: 4; fill: rgb(22,181,37); fill-rule: nonzero; opacity: 1;" vector-effect="non-scaling-stroke"  transform=" translate(-9318.41, -8929.69)" d="M 9258 9138 C 9205 9124 9135 9059 9114 9005 C 9064 8872 9155 8724 9294 8712 C 9364 8706 9414 8724 9467 8772 C 9527 8828 9548 8897 9531 8976 C 9514 9051 9448 9121 9378 9138 C 9324 9152 9309 9152 9258 9138 z" stroke-linecap="round" />
</g>
		<g transform="matrix(0.1 0 0 -0.1 235.69 84.27)"  >
<path style="stroke: none; stroke-width: 1; stroke-dasharray: none; stroke-linecap: butt; stroke-dashoffset: 0; stroke-linejoin: miter; stroke-miterlimit: 4; fill: rgb(22,181,37); fill-rule: nonzero; opacity: 1;" vector-effect="non-scaling-stroke"  transform=" translate(-9325.61, -8060.98)" d="M 9713 8453 C 9682 8443 9653 8419 9613 8373 C 9515 8261 9482 8232 9402 8185 C 9313 8133 9273 8123 9227 8141 C 9169 8164 9145 8187 9105 8260 C 9044 8371 8964 8430 8875 8430 C 8785 8430 8696 8362 8665 8270 C 8638 8190 8649 8116 8701 8011 C 8822 7765 9126 7610 9380 7664 C 9594 7709 9888 7916 9966 8077 C 10008 8162 10012 8270 9976 8344 C 9948 8401 9898 8443 9839 8460 C 9794 8473 9764 8472 9713 8453 z" stroke-linecap="round" />
</g>
		<g transform="matrix(1 0 0 1 -676.17 903.8)" style=""  >
		<text xml:space="preserve" font-family="'Helvetica Neue', Helvetica, Arial-Unicode, Arial, Sans-serif" font-size="5" font-style="normal" font-weight="bold" style="stroke: none; stroke-width: 1; stroke-dasharray: none; stroke-linecap: butt; stroke-dashoffset: 0; stroke-linejoin: miter; stroke-miterlimit: 4; fill: rgb(22,181,37); fill-rule: nonzero; opacity: 1; white-space: pre;" ><tspan x="-20.7" y="1.57" >Created by PLUM</tspan></text>
</g>
		<g transform="matrix(1 0 0 1 -670.62 908.8)" style=""  >
		<text xml:space="preserve" font-family="'Helvetica Neue', Helvetica, Arial-Unicode, Arial, Sans-serif" font-size="5" font-style="normal" font-weight="bold" style="stroke: none; stroke-width: 1; stroke-dasharray: none; stroke-linecap: butt; stroke-dashoffset: 0; stroke-linejoin: miter; stroke-miterlimit: 4; fill: rgb(22,181,37); fill-rule: nonzero; opacity: 1; white-space: pre;" ><tspan x="-26.25" y="1.57" >from the Noun Project</tspan></text>
</g>
</g>
</g>
</svg>