<svg xmlns="http://www.w3.org/2000/svg" xmlns:xlink="http://www.w3.org/1999/xlink" width="170" zoomAndPan="magnify" viewBox="0 0 810 809.999993" height="190" preserveAspectRatio="xMidYMid meet" version="1.0"><defs><filter x="0%" y="0%" width="100%" height="100%" id="d56037e76b"><feColorMatrix values="0 0 0 0 1 0 0 0 0 1 0 0 0 0 1 0 0 0 1 0" color-interpolation-filters="sRGB"/></filter><g/><mask id="9487600c40"><g filter="url(#d56037e76b)"><rect x="-81" width="972" fill="#000000" y="-80.999999" height="971.999992" fill-opacity="0.098"/></g></mask><clipPath id="42c2589e45"><path d="M 2 0.398438 L 167 0.398438 L 167 615.761719 L 2 615.761719 Z M 2 0.398438 " clip-rule="nonzero"/></clipPath><clipPath id="3562a3f3f8"><rect x="0" width="169" y="0" height="616"/></clipPath><clipPath id="201b094e10"><path d="M 124.242188 182.289062 L 685.664062 182.289062 L 685.664062 809.757812 L 124.242188 809.757812 Z M 124.242188 182.289062 " clip-rule="nonzero"/></clipPath><mask id="3cafee83d4"><g filter="url(#d56037e76b)"><rect x="-81" width="972" fill="#000000" y="-80.999999" height="971.999992" fill-opacity="0.098"/></g></mask><clipPath id="7097252b1b"><path d="M 1 1 L 81 1 L 81 260.761719 L 1 260.761719 Z M 1 1 " clip-rule="nonzero"/></clipPath><clipPath id="8d77c33c7c"><rect x="0" width="82" y="0" height="261"/></clipPath><clipPath id="eb53538c90"><path d="M 222 538 L 588 538 L 588 809.757812 L 222 809.757812 Z M 222 538 " clip-rule="nonzero"/></clipPath><clipPath id="3ef1cce92d"><path d="M 214 182.289062 L 529 182.289062 L 529 365 L 214 365 Z M 214 182.289062 " clip-rule="nonzero"/></clipPath></defs><path fill="#00fff0" d="M 678.894531 305.414062 L 678.894531 753.4375 C 678.894531 780.921875 656.628906 803.210938 629.140625 803.25 L 180.625 803.25 C 153.136719 803.210938 130.871094 780.921875 130.871094 753.4375 L 130.871094 238.542969 C 130.871094 211.070312 153.144531 188.800781 180.625 188.800781 L 562.320312 188.800781 C 575.546875 188.804688 588.226562 194.070312 597.558594 203.441406 C 621.882812 227.757812 639.863281 245.796875 664.25 270.113281 C 673.613281 279.476562 678.878906 292.171875 678.894531 305.414062 Z M 678.894531 305.414062 " fill-opacity="1" fill-rule="nonzero"/><g mask="url(#9487600c40)"><g transform="matrix(1, 0, 0, 1, 512, 188)"><g clip-path="url(#3562a3f3f8)"><g clip-path="url(#42c2589e45)"><path fill="#000000" d="M 166.894531 117.414062 L 166.894531 565.4375 C 166.894531 592.921875 144.628906 615.210938 117.140625 615.25 L 68.953125 615.25 C 96.46875 615.25 118.773438 592.949219 118.773438 565.4375 L 118.773438 117.414062 C 118.734375 104.164062 113.445312 91.472656 104.0625 82.113281 L 37.441406 15.441406 C 28.074219 6.078125 15.378906 0.8125 2.132812 0.796875 L 50.320312 0.796875 C 63.546875 0.800781 76.226562 6.070312 85.558594 15.441406 L 152.25 82.113281 C 161.613281 91.476562 166.878906 104.171875 166.894531 117.414062 Z M 166.894531 117.414062 " fill-opacity="1" fill-rule="nonzero"/></g></g></g></g><g clip-path="url(#201b094e10)"><path fill="#000000" d="M 629.140625 809.785156 L 180.625 809.785156 C 149.539062 809.714844 124.367188 784.515625 124.332031 753.4375 L 124.332031 238.542969 C 124.367188 207.472656 149.546875 182.296875 180.625 182.261719 L 562.320312 182.261719 C 577.273438 182.304688 591.605469 188.246094 602.203125 198.796875 L 623.125 219.78125 C 638.160156 234.816406 651.957031 248.671875 668.890625 265.539062 C 679.449219 276.15625 685.394531 290.507812 685.433594 305.476562 L 685.433594 753.4375 C 685.398438 784.515625 660.226562 809.714844 629.140625 809.785156 Z M 180.625 195.335938 C 156.773438 195.371094 137.441406 214.695312 137.40625 238.542969 L 137.40625 753.441406 C 137.40625 777.3125 156.746094 796.675781 180.625 796.710938 L 629.140625 796.710938 C 653.019531 796.675781 672.359375 777.3125 672.359375 753.441406 L 672.359375 305.414062 C 672.222656 293.867188 667.523438 282.84375 659.28125 274.753906 L 613.515625 228.996094 L 592.984375 208.410156 C 584.894531 200.167969 573.867188 195.46875 562.320312 195.335938 Z M 180.625 195.335938 " fill-opacity="1" fill-rule="nonzero"/></g><path fill="#ffffff" d="M 229.269531 803.25 L 229.269531 577.339844 C 229.269531 559.289062 243.90625 544.65625 261.960938 544.65625 L 547.804688 544.65625 C 565.859375 544.65625 580.496094 559.289062 580.496094 577.339844 L 580.496094 803.25 Z M 229.269531 803.25 " fill-opacity="1" fill-rule="nonzero"/><g mask="url(#3cafee83d4)"><g transform="matrix(1, 0, 0, 1, 500, 543)"><g clip-path="url(#8d77c33c7c)"><g clip-path="url(#7097252b1b)"><path fill="#000000" d="M 80.496094 34.273438 L 80.496094 260.25 L 34.074219 260.25 L 34.074219 34.273438 C 34.074219 16.222656 19.4375 1.589844 1.382812 1.589844 L 47.804688 1.589844 C 65.859375 1.589844 80.496094 16.222656 80.496094 34.273438 Z M 80.496094 34.273438 " fill-opacity="1" fill-rule="nonzero"/></g></g></g></g><g clip-path="url(#eb53538c90)"><path fill="#000000" d="M 580.496094 809.785156 L 229.269531 809.785156 C 225.65625 809.785156 222.730469 806.859375 222.730469 803.246094 L 222.730469 577.339844 C 222.730469 555.679688 240.292969 538.121094 261.957031 538.121094 L 547.804688 538.121094 C 569.472656 538.121094 587.035156 555.679688 587.035156 577.339844 L 587.035156 803.25 C 587.035156 806.859375 584.109375 809.785156 580.496094 809.785156 Z M 235.804688 796.710938 L 573.957031 796.710938 L 573.957031 577.339844 C 573.957031 562.898438 562.246094 551.195312 547.804688 551.195312 L 261.960938 551.195312 C 247.515625 551.195312 235.808594 562.902344 235.808594 577.339844 L 235.808594 796.710938 Z M 235.804688 796.710938 " fill-opacity="1" fill-rule="nonzero"/></g><path fill="#ffffff" d="M 521.652344 188.796875 L 521.652344 334.109375 C 521.617188 347.414062 510.835938 358.195312 497.527344 358.230469 L 245.089844 358.230469 C 231.71875 358.265625 220.839844 347.476562 220.769531 334.109375 L 220.769531 188.796875 Z M 521.652344 188.796875 " fill-opacity="1" fill-rule="nonzero"/><g clip-path="url(#3ef1cce92d)"><path fill="#000000" d="M 497.527344 364.765625 L 245.089844 364.765625 C 228.109375 364.804688 214.304688 351.089844 214.230469 334.109375 L 214.230469 188.796875 C 214.230469 185.1875 217.160156 182.261719 220.769531 182.261719 L 521.523438 182.261719 C 525.136719 182.261719 528.0625 185.1875 528.0625 188.796875 L 528.0625 334.109375 C 528.023438 350.972656 514.394531 364.660156 497.527344 364.765625 Z M 227.308594 195.335938 L 227.308594 334.109375 C 227.378906 343.867188 235.332031 351.730469 245.089844 351.695312 L 497.527344 351.695312 C 507.226562 351.65625 515.078125 343.804688 515.117188 334.109375 L 515.117188 195.335938 Z M 227.308594 195.335938 " fill-opacity="1" fill-rule="nonzero"/></g><path fill="#0ff000" d="M 282.097656 358.230469 L 282.097656 274.492188 C 282.097656 263.664062 290.878906 254.882812 301.710938 254.882812 L 338.585938 254.882812 C 349.421875 254.882812 358.203125 263.664062 358.203125 274.492188 L 358.203125 358.230469 Z M 282.097656 358.230469 " fill-opacity="1" fill-rule="nonzero"/><path fill="#000000" d="M 358.460938 364.765625 L 282.097656 364.765625 C 278.484375 364.765625 275.558594 361.839844 275.558594 358.230469 L 275.558594 274.492188 C 275.558594 260.054688 287.265625 248.347656 301.710938 248.347656 L 338.585938 248.347656 C 353.03125 248.347656 364.738281 260.054688 364.738281 274.492188 L 364.738281 358.230469 C 364.742188 361.742188 361.96875 364.625 358.460938 364.765625 Z M 288.632812 351.695312 L 351.921875 351.695312 L 351.921875 274.496094 C 351.921875 267.277344 346.070312 261.421875 338.847656 261.421875 L 301.839844 261.421875 C 294.621094 261.421875 288.765625 267.277344 288.765625 274.496094 Z M 288.632812 351.695312 " fill-opacity="1" fill-rule="nonzero"/><path fill="#000000" d="M 440.382812 308.484375 C 436.773438 308.484375 433.84375 305.558594 433.84375 301.949219 L 433.84375 252.007812 C 433.84375 248.398438 436.773438 245.472656 440.382812 245.472656 C 443.996094 245.472656 446.921875 248.398438 446.921875 252.007812 L 446.921875 301.949219 C 446.921875 305.558594 443.996094 308.484375 440.382812 308.484375 Z M 440.382812 308.484375 " fill-opacity="1" fill-rule="nonzero"/><path fill="#000000" d="M 501.710938 624.140625 L 305.566406 624.140625 C 301.957031 624.140625 299.027344 621.214844 299.027344 617.605469 C 299.027344 613.996094 301.957031 611.066406 305.566406 611.066406 L 501.710938 611.066406 C 505.320312 611.066406 508.25 613.996094 508.25 617.605469 C 508.25 621.214844 505.320312 624.140625 501.710938 624.140625 Z M 501.710938 624.140625 " fill-opacity="1" fill-rule="nonzero"/><path fill="#000000" d="M 501.710938 682.972656 L 305.566406 682.972656 C 301.957031 682.972656 299.027344 680.046875 299.027344 676.4375 C 299.027344 672.824219 301.957031 669.898438 305.566406 669.898438 L 501.710938 669.898438 C 505.320312 669.898438 508.25 672.824219 508.25 676.4375 C 508.25 680.046875 505.320312 682.972656 501.710938 682.972656 Z M 501.710938 682.972656 " fill-opacity="1" fill-rule="nonzero"/><path fill="#000000" d="M 501.710938 741.804688 L 305.566406 741.804688 C 301.957031 741.804688 299.027344 738.875 299.027344 735.265625 C 299.027344 731.65625 301.957031 728.730469 305.566406 728.730469 L 501.710938 728.730469 C 505.320312 728.730469 508.25 731.65625 508.25 735.265625 C 508.25 738.875 505.320312 741.804688 501.710938 741.804688 Z M 501.710938 741.804688 " fill-opacity="1" fill-rule="nonzero"/><path stroke-linecap="butt" transform="matrix(1.282275, 0, 0, 1.282275, 124.241188, -15.285212)" fill="none" stroke-linejoin="miter" d="M 35.956769 81.818731 C 24.810199 79.634503 22.482793 75.765647 22.482793 70.09031 C 22.482793 64.006762 27.430054 60.253667 35.956769 60.253667 C 45.238977 60.253667 50.332463 63.659479 51.322524 68.286874 C 51.58451 69.246472 52.0506 69.916668 53.12596 69.916668 L 63.428693 69.916668 C 64.504052 69.916668 65.232128 69.130711 65.085903 67.936545 C 63.602334 53.03688 53.12596 46.371481 35.780081 46.371481 C 16.633813 46.371481 7.40644 55.598855 7.40644 70.09031 C 7.40644 86.592351 20.999223 92.322523 35.956769 95.466349 C 48.062937 98.028324 52.340003 100.733477 52.340003 108.532115 C 52.340003 115.575261 46.433143 118.719087 36.364979 118.719087 C 27.021844 118.719087 21.782134 115.751949 20.444789 110.423895 C 20.213267 109.49476 19.747176 108.708803 18.668771 108.708803 L 7.525247 108.708803 C 6.446842 108.708803 5.749229 109.610521 5.86499 110.804687 C 7.232798 126.109516 17.41977 132.774915 36.364979 132.774915 C 57.403026 132.774915 67.589998 124.336544 67.589998 108.126952 C 67.589998 90.110878 51.873913 84.932094 35.956769 81.818731 Z M 142.868186 128.96394 L 121.711332 48.991336 C 121.42193 48.031738 120.578093 47.565647 119.615448 47.565647 L 100.322956 47.565647 C 99.360312 47.565647 98.516474 48.031738 98.227072 48.991336 L 77.128098 128.96394 C 76.777769 130.15506 77.243859 130.998897 78.553787 130.998897 L 90.659955 130.998897 C 91.619553 130.998897 92.435973 130.651614 92.697959 129.573208 L 96.015427 115.983471 L 123.922977 115.983471 L 127.240445 129.573208 C 127.502431 130.651614 128.318851 130.998897 129.278449 130.998897 L 141.442498 130.998897 C 142.752425 130.998897 143.160635 130.15506 142.868186 128.96394 Z M 99.302431 102.625256 L 108.907551 63.659479 L 111.030853 63.659479 L 120.635973 102.625256 Z M 200.541557 48.991336 L 184.331965 114.847185 L 182.208663 114.847185 L 165.999071 48.991336 C 165.737085 47.915977 164.920665 47.565647 163.961067 47.565647 L 151.854899 47.565647 C 150.544971 47.565647 150.078881 48.382067 150.42921 49.573188 L 171.528184 129.573208 C 171.817587 130.535853 172.661424 130.998897 173.621022 130.998897 L 192.91656 130.998897 C 193.876158 130.998897 194.719995 130.535853 195.012444 129.573208 L 216.169298 49.573188 C 216.458701 48.382067 216.053537 47.565647 214.74361 47.565647 L 202.579561 47.565647 C 201.616917 47.565647 200.803543 47.915977 200.541557 48.991336 Z M 282.747131 117.177638 L 244.82625 117.177638 L 244.82625 95.234827 L 279.575887 95.234827 C 280.651247 95.234827 281.348859 94.537214 281.348859 93.458809 L 281.348859 83.128659 C 281.348859 82.080717 280.651247 81.352641 279.575887 81.352641 L 244.82625 81.352641 L 244.82625 61.389953 L 282.63137 61.389953 C 283.679312 61.389953 284.404342 60.661877 284.404342 59.583472 L 284.404342 49.341665 C 284.404342 48.26326 283.679312 47.565647 282.63137 47.565647 L 231.062871 47.565647 C 229.984465 47.565647 229.286853 48.26326 229.286853 49.341665 L 229.286853 129.225925 C 229.286853 130.273867 229.984465 130.998897 231.062871 130.998897 L 282.747131 130.998897 C 283.795073 130.998897 284.523149 130.273867 284.523149 129.225925 L 284.523149 118.950609 C 284.523149 117.87525 283.795073 117.177638 282.747131 117.177638 Z M 327.120167 47.565647 L 302.645845 47.565647 C 301.56744 47.565647 300.84241 48.26326 300.84241 49.341665 L 300.84241 129.225925 C 300.84241 130.273867 301.56744 130.998897 302.645845 130.998897 L 327.120167 130.998897 C 353.833551 130.998897 361.227026 113.945467 361.227026 89.26704 C 361.227026 64.619077 353.833551 47.565647 327.120167 47.565647 Z M 327.120167 117.177638 L 316.409224 117.177638 L 316.409224 61.389953 L 327.120167 61.389953 C 342.690028 61.389953 345.367763 71.515998 345.367763 89.26704 C 345.367763 107.048546 342.690028 117.177638 327.120167 117.177638 Z M 327.120167 117.177638 " stroke="#ffffff" stroke-width="8.9403" stroke-opacity="1" stroke-miterlimit="4"/><g fill="#000000" fill-opacity="1"><g transform="translate(124.261224, 152.69282)"><g><path d="M 46.082031 -63.050781 C 31.792969 -65.878906 28.8125 -70.84375 28.8125 -78.105469 C 28.8125 -85.898438 35.15625 -90.714844 46.082031 -90.714844 C 58.003906 -90.714844 64.5 -86.359375 65.800781 -80.398438 C 66.105469 -79.175781 66.71875 -78.335938 68.09375 -78.335938 L 81.316406 -78.335938 C 82.691406 -78.335938 83.605469 -79.328125 83.453125 -80.855469 C 81.542969 -99.960938 68.09375 -108.523438 45.855469 -108.523438 C 21.320312 -108.523438 9.476562 -96.675781 9.476562 -78.105469 C 9.476562 -56.9375 26.902344 -49.597656 46.082031 -45.546875 C 61.597656 -42.261719 67.101562 -38.824219 67.101562 -28.8125 C 67.101562 -19.792969 59.535156 -15.742188 46.617188 -15.742188 C 34.621094 -15.742188 27.894531 -19.5625 26.214844 -26.367188 C 25.90625 -27.589844 25.296875 -28.582031 23.921875 -28.582031 L 9.628906 -28.582031 C 8.253906 -28.582031 7.335938 -27.4375 7.488281 -25.90625 C 9.246094 -6.265625 22.316406 2.292969 46.617188 2.292969 C 73.597656 2.292969 86.664062 -8.558594 86.664062 -29.347656 C 86.664062 -52.425781 66.488281 -59.074219 46.082031 -63.050781 Z M 46.082031 -63.050781 "/></g></g></g><g fill="#000000" fill-opacity="1"><g transform="translate(218.252264, 152.69282)"><g><path d="M 89.1875 -2.597656 L 62.054688 -105.160156 C 61.675781 -106.382812 60.605469 -106.992188 59.382812 -106.992188 L 34.621094 -106.992188 C 33.398438 -106.992188 32.328125 -106.382812 31.945312 -105.160156 L 4.890625 -2.597656 C 4.433594 -1.070312 5.042969 0 6.726562 0 L 22.238281 0 C 23.460938 0 24.53125 -0.457031 24.835938 -1.835938 L 29.117188 -19.257812 L 64.882812 -19.257812 L 69.164062 -1.835938 C 69.46875 -0.457031 70.539062 0 71.761719 0 L 87.351562 0 C 89.035156 0 89.570312 -1.070312 89.1875 -2.597656 Z M 33.320312 -36.378906 L 45.625 -86.359375 L 48.375 -86.359375 L 60.679688 -36.378906 Z M 33.320312 -36.378906 "/></g></g></g><g fill="#000000" fill-opacity="1"><g transform="translate(312.243304, 152.69282)"><g><path d="M 69.164062 -105.160156 L 48.375 -20.710938 L 45.625 -20.710938 L 24.835938 -105.160156 C 24.53125 -106.535156 23.460938 -106.992188 22.238281 -106.992188 L 6.726562 -106.992188 C 5.042969 -106.992188 4.433594 -105.921875 4.890625 -104.394531 L 31.945312 -1.835938 C 32.328125 -0.613281 33.398438 0 34.621094 0 L 59.382812 0 C 60.605469 0 61.675781 -0.613281 62.054688 -1.835938 L 89.1875 -104.394531 C 89.570312 -105.921875 89.035156 -106.992188 87.351562 -106.992188 L 71.761719 -106.992188 C 70.539062 -106.992188 69.46875 -106.535156 69.164062 -105.160156 Z M 69.164062 -105.160156 "/></g></g></g><g fill="#000000" fill-opacity="1"><g transform="translate(406.234343, 152.69282)"><g><path d="M 80.550781 -17.730469 L 31.945312 -17.730469 L 31.945312 -45.855469 L 76.5 -45.855469 C 77.875 -45.855469 78.792969 -46.769531 78.792969 -48.148438 L 78.792969 -61.367188 C 78.792969 -62.742188 77.875 -63.660156 76.5 -63.660156 L 31.945312 -63.660156 L 31.945312 -89.261719 L 80.398438 -89.261719 C 81.773438 -89.261719 82.691406 -90.179688 82.691406 -91.554688 L 82.691406 -104.699219 C 82.691406 -106.074219 81.773438 -106.992188 80.398438 -106.992188 L 14.292969 -106.992188 C 12.914062 -106.992188 12 -106.074219 12 -104.699219 L 12 -2.292969 C 12 -0.917969 12.914062 0 14.292969 0 L 80.550781 0 C 81.925781 0 82.84375 -0.917969 82.84375 -2.292969 L 82.84375 -15.4375 C 82.84375 -16.8125 81.925781 -17.730469 80.550781 -17.730469 Z M 80.550781 -17.730469 "/></g></g></g><g fill="#000000" fill-opacity="1"><g transform="translate(500.225383, 152.69282)"><g><path d="M 43.484375 -106.992188 L 12.074219 -106.992188 C 10.699219 -106.992188 9.78125 -106.074219 9.78125 -104.699219 L 9.78125 -2.292969 C 9.78125 -0.917969 10.699219 0 12.074219 0 L 43.484375 0 C 77.722656 0 87.199219 -21.855469 87.199219 -53.496094 C 87.199219 -85.136719 77.722656 -106.992188 43.484375 -106.992188 Z M 43.484375 -17.730469 L 29.730469 -17.730469 L 29.730469 -89.261719 L 43.484375 -89.261719 C 63.429688 -89.261719 66.871094 -76.269531 66.871094 -53.496094 C 66.871094 -30.722656 63.429688 -17.730469 43.484375 -17.730469 Z M 43.484375 -17.730469 "/></g></g></g></svg>